# xmcd
#
# Track frame offsets: 
#        150
#        20002
#        41991
#        58910
#        79618
#        95803
#        122229
#        134606
#        150529
#        178584
#        191118
#        204010
#
# Disc length: 2983 seconds
#
# Revision: 2
# Processed by: cddbd v1.4PL0 Copyright (c) Steve Scherf et al.
# Submitted via: ExactAudioCopy v0.90b4
#
DISCID=ac0ba50c
DTITLE=Bad Influence - Tastes Like Chicken
DYEAR=2001
DGENRE=Blues
TTITLE0=Love Dot Com
TTITLE1=Don't Forget Your Nightclothes
TTITLE2=She What?
TTITLE3=Road House
TTITLE4=B-Flick Man
TTITLE5=Talkin' To The Wall
TTITLE6=DC Driver
TTITLE7=Break Out
TTITLE8=When I'm With You
TTITLE9=Run To The Money
TTITLE10=Cat Fight
TTITLE11=The Clown
EXTD=YEAR: 2001
EXTT0=
EXTT1=
EXTT2=
EXTT3=
EXTT4=
EXTT5=
EXTT6=
EXTT7=
EXTT8=
EXTT9=
EXTT10=
EXTT11=
PLAYORDER=
